<svg width="77" height="64" viewBox="0 0 77 64" fill="none" xmlns="http://www.w3.org/2000/svg">
<g clip-path="url(#clip0_112_1124)">
<path d="M68.2324 34.2931H42.858C43.3823 38.4498 41.0615 37.8315 38.4226 37.2045V30.0848C37.2192 29.8873 36.1792 29.7155 35.1993 29.5523C35.0789 28.0751 34.9758 26.8642 34.8468 25.3527H22.1253V12.8824C20.6382 12.7193 19.3145 12.5819 18.0337 12.4444C17.8962 10.9501 17.7758 9.72195 17.6641 8.55395C16.1685 8.40794 14.9479 8.27912 13.7531 8.15888C13.6155 6.6817 13.5038 5.46216 13.3835 4.24262C11.905 4.1138 10.6844 4.01074 9.40366 3.89909C9.30911 2.4219 9.23175 1.20236 9.16298 0H4.33222V4.8438C5.7505 4.92109 6.97968 4.98121 8.49252 5.0671V9.29254H12.5583V12.7021H0V26.4262H17.0108C17.0108 28.7107 17.0108 30.6688 16.9764 33.4171C16.9764 33.4171 16.985 33.4171 16.9936 33.4171L16.9764 33.46C16.9764 33.46 16.9764 33.4342 16.9764 33.4257C15.5839 33.8207 14.1743 34.2244 12.8591 34.5851V38.2093C14.286 38.3553 15.6097 38.5013 16.9077 38.6302V45.9216C15.4808 46.0848 14.1571 46.2308 12.8763 46.3768C12.7388 47.8712 12.627 49.0907 12.5153 50.2587C11.0111 50.4133 9.78187 50.5336 8.60426 50.6538C8.45814 52.1396 8.3378 53.3591 8.21746 54.5615C6.739 54.6903 5.51842 54.8019 4.358 54.905V59.6629H9.15439C9.25753 58.2287 9.34349 57.0005 9.43804 55.6951C10.9251 55.6092 12.1457 55.5405 13.4952 55.4546C13.564 53.9603 13.6241 52.7407 13.6929 51.2206H17.9306V46.9694C19.2801 47.1068 20.2858 47.2099 21.4548 47.3301V55.6006H25.34C25.5721 57.2152 25.7612 58.5464 25.9675 59.9549C27.7468 59.8604 29.2425 59.7831 30.6264 59.7144V54.9479C29.1823 54.7676 27.8672 54.6044 26.3887 54.424V46.3682C24.8845 46.1793 23.5521 46.0161 22.2112 45.8443C22.0221 45.3977 22.2628 43.6887 22.0737 43.2421C23.5865 42.3747 24.6782 42.7697 26.3629 41.8078C26.4489 40.9834 26.5692 39.7724 26.6896 38.6645H38.6547V46.8578C40.1933 46.9952 41.4225 47.0982 42.6431 47.2013C42.7635 48.6785 42.8666 49.898 42.9955 51.3924H50.2245C51.8147 55.9614 47.981 54.2179 46.3307 54.9995C46.2619 56.3478 46.2017 57.576 46.1415 58.7182C44.8264 59.0016 43.8035 59.2249 42.9783 59.4053V64.0086H47.1129V59.8862H51.3849V55.6264H55.4507C55.657 54.0118 55.8203 52.6892 55.975 51.4439H63.204C63.3845 52.8782 63.5564 54.2179 63.7111 55.4289C65.2067 55.6006 66.4273 55.7295 67.562 55.8583C67.7167 57.3612 67.8456 58.5808 67.9745 59.7488C69.4702 59.8948 70.6994 60.0064 71.8598 60.1181C72.0145 61.6296 72.1349 62.8406 72.2466 63.9485H76.9484V59.2077C75.4872 59.0617 74.2666 58.9501 73.046 58.8298C72.9171 57.3612 72.8139 56.1331 72.7022 54.8964C71.2237 54.7762 69.9945 54.6817 68.9029 54.5958C67.3127 50.0784 71.1464 51.8218 72.9514 50.9801V47.3129C74.576 47.0639 75.8912 46.8663 77 46.6946V37.548H68.9029C68.6278 36.1997 68.4129 35.1777 68.2324 34.3017V34.2931ZM6.71322 18.7998H3.79069V15.8798H6.71322V18.7998Z" fill="#0075F2"/>
</g>
<defs>
<clipPath id="clip0_112_1124">
<rect width="77" height="64" fill="white"/>
</clipPath>
</defs>
</svg>
