<svg width="31" height="44" viewBox="0 0 31 44" fill="none" xmlns="http://www.w3.org/2000/svg">
<path d="M22.2685 29.5815C26.5076 29.5815 29.944 26.1451 29.944 21.906C29.944 17.6669 26.5076 14.2305 22.2685 14.2305C18.0295 14.2305 14.593 17.6669 14.593 21.906C14.593 26.1451 18.0295 29.5815 22.2685 29.5815Z" fill="#0075F2"/>
<path d="M22.269 43.8055C27.0645 43.8055 30.952 39.918 30.952 35.1225C30.952 30.327 27.0645 26.4395 22.269 26.4395C17.4735 26.4395 13.5859 30.327 13.5859 35.1225C13.5859 39.918 17.4735 43.8055 22.269 43.8055Z" fill="#0075F2"/>
<path d="M8.68304 30.5887C13.4785 30.5887 17.3661 26.7012 17.3661 21.9057C17.3661 17.1102 13.4785 13.2227 8.68304 13.2227C3.88753 13.2227 0 17.1102 0 21.9057C0 26.7012 3.88753 30.5887 8.68304 30.5887Z" fill="#0075F2"/>
<path d="M22.269 17.3661C27.0645 17.3661 30.952 13.4785 30.952 8.68304C30.952 3.88753 27.0645 0 22.269 0C17.4735 0 13.5859 3.88753 13.5859 8.68304C13.5859 13.4785 17.4735 17.3661 22.269 17.3661Z" fill="#0075F2"/>
</svg>
